<svg width="1200" height="800" viewBox="0 0 1200 800" fill="none" xmlns="http://www.w3.org/2000/svg">
  <defs>
    <linearGradient id="bg" x1="0" y1="0" x2="1" y2="1">
      <stop offset="0%" stop-color="#0f172a"/>
      <stop offset="100%" stop-color="#1e293b"/>
    </linearGradient>
    <linearGradient id="card" x1="0" y1="0" x2="1" y2="1">
      <stop offset="0%" stop-color="#14b8a6" stop-opacity="0.25"/>
      <stop offset="100%" stop-color="#0ea5e9" stop-opacity="0.35"/>
    </linearGradient>
  </defs>
  <rect width="1200" height="800" rx="48" fill="url(#bg)"/>
  <circle cx="1040" cy="130" r="120" fill="#14b8a6" fill-opacity="0.20"/>
  <circle cx="180" cy="660" r="140" fill="#0ea5e9" fill-opacity="0.15"/>
  <rect x="110" y="130" width="980" height="540" rx="32" fill="url(#card)" stroke="#67e8f9" stroke-opacity="0.3"/>
  <rect x="180" y="210" width="410" height="380" rx="24" fill="#0f172a" stroke="#67e8f9" stroke-opacity="0.35"/>
  <rect x="640" y="210" width="380" height="150" rx="20" fill="#0f172a" stroke="#5eead4" stroke-opacity="0.4"/>
  <rect x="640" y="390" width="380" height="200" rx="20" fill="#0f172a" stroke="#22d3ee" stroke-opacity="0.4"/>
  <path d="M340 300V500" stroke="#5eead4" stroke-width="28" stroke-linecap="round"/>
  <path d="M240 400H440" stroke="#5eead4" stroke-width="28" stroke-linecap="round"/>
  <circle cx="770" cy="286" r="42" fill="#14b8a6" fill-opacity="0.4"/>
  <rect x="828" y="264" width="150" height="20" rx="10" fill="#a5f3fc" fill-opacity="0.7"/>
  <rect x="828" y="300" width="120" height="14" rx="7" fill="#67e8f9" fill-opacity="0.6"/>
  <rect x="690" y="440" width="150" height="18" rx="9" fill="#99f6e4" fill-opacity="0.8"/>
  <rect x="690" y="474" width="260" height="12" rx="6" fill="#67e8f9" fill-opacity="0.65"/>
  <rect x="690" y="500" width="200" height="12" rx="6" fill="#67e8f9" fill-opacity="0.65"/>
</svg>
